# File created by Blade
# Date/Time:  Wed Sep 24 20:21:23 2014
# Frame Rate: 120.000 fps
#------------------------------------------------------
:FULLY-SPECIFIED
:DEGREES
337
root -8.738770 32.139573 -7.186623 7.066861 10.725552 23.683620
Spine 37.098874 -9.953113 -27.138480
Head -56.265532 6.350345 11.101829
LeftShoulder 19.604592 -5.992116 8.260120
LeftArm 34.951104 -24.802119 -67.757287
LeftForeArm -75.132459 -0.000000 4.893108
LeftHand -19.390492 0.000000 -34.568838
LeftHandThumb1 -26.253704 0.000000 33.147579
RightShoulder -17.024793 19.982714 -24.651306
RightArm -6.460042 -24.952410 81.556730
RightForeArm -28.047302 0.000000 31.502572
RightHand -6.223376 -0.000000 -1.085456
RightHandThumb1 -24.326973 -0.000000 -32.862282
LeftUpLeg -130.347704 13.191511 -38.092644
LeftLeg 107.518715 -0.000000 -0.000000
LeftFoot 35.405064 18.001813 -16.271571
LeftToeBase -2.217183 -0.000000 0.000000
RightUpLeg -23.022683 -6.853123 -14.887853
RightLeg 41.690161 -0.000000 -0.000000
RightFoot -23.216876 -17.717991 -3.583418
RightToeBase 0.606274 -0.000000 -0.000000
338
root -8.741890 32.131868 -7.184120 7.048326 10.780430 23.688391
Spine 37.117424 -9.947152 -27.205306
Head -56.177692 6.336952 11.312305
LeftShoulder 19.566220 -5.991014 8.323900
LeftArm 34.939581 -24.899405 -67.714685
LeftForeArm -74.940408 -0.000000 4.860218
LeftHand -19.963632 -0.000000 -34.193922
LeftHandThumb1 -26.253704 0.000000 33.147579
RightShoulder -17.021054 19.958552 -24.586355
RightArm -6.566835 -25.025673 81.529203
RightForeArm -27.960218 -0.000000 31.381154
RightHand -6.334154 -0.000000 -1.138334
RightHandThumb1 -24.326973 -0.000000 -32.862282
LeftUpLeg -130.342259 13.248145 -38.095170
LeftLeg 107.486736 -0.000000 -0.000000
LeftFoot 35.417881 17.943038 -16.229421
LeftToeBase -2.168076 -0.000000 0.000000
RightUpLeg -23.030959 -6.850028 -14.885029
RightLeg 41.797681 -0.000000 -0.000000
RightFoot -23.237162 -17.778613 -3.565791
RightToeBase 0.550853 -0.000000 -0.000000
339
root -8.746115 32.123633 -7.179117 7.016744 10.819362 23.679017
Spine 37.138465 -9.913415 -27.264777
Head -56.103459 6.321511 11.544677
LeftShoulder 19.552640 -5.971926 8.362637
LeftArm 34.898824 -24.970612 -67.590843
LeftForeArm -74.691331 -0.000000 4.862578
LeftHand -19.782730 -0.000000 -33.898127
LeftHandThumb1 -26.253704 0.000000 33.147579
RightShoulder -17.024390 19.925264 -24.498799
RightArm -6.675984 -25.177271 81.465516
RightForeArm -27.787344 0.000000 31.289319
RightHand -6.365889 0.000000 -1.240137
RightHandThumb1 -24.326973 -0.000000 -32.862282
LeftUpLeg -130.359096 13.308843 -38.127689
LeftLeg 107.484646 -0.000000 -0.000000
LeftFoot 35.497949 17.903952 -16.039462
LeftToeBase -2.292428 -0.000000 0.000000
RightUpLeg -23.018176 -6.817616 -14.867897
RightLeg 41.880110 -0.000000 -0.000000
RightFoot -23.274508 -17.849907 -3.567419
RightToeBase 0.499505 -0.000000 -0.000000
340
root -8.751601 32.116748 -7.176670 6.999432 10.848010 23.667354
Spine 37.150735 -9.880848 -27.329259
Head -56.044153 6.312932 11.788466
LeftShoulder 19.524142 -5.973445 8.366291
LeftArm 34.839089 -25.143404 -67.485291
LeftForeArm -73.896976 -0.000000 4.873189
LeftHand -19.599094 -0.000000 -34.418208
LeftHandThumb1 -26.253704 0.000000 33.147579
RightShoulder -17.015895 19.900360 -24.416757
RightArm -6.769425 -25.227711 81.406453
RightForeArm -27.671666 -0.000000 31.149369
RightHand -6.397356 -0.000000 -1.168792
RightHandThumb1 -24.326973 -0.000000 -32.862282
LeftUpLeg -130.382734 13.362847 -38.157581
LeftLeg 107.476510 -0.000000 -0.000000
LeftFoot 35.534027 17.887605 -15.884395
LeftToeBase -2.077398 -0.000000 0.000000
RightUpLeg -23.028458 -6.723173 -14.848291
RightLeg 41.961406 -0.000000 -0.000000
RightFoot -23.282894 -17.976455 -3.560206
RightToeBase 0.525690 -0.000000 -0.000000
341
root -8.755893 32.112479 -7.175183 6.978004 10.888243 23.662757
Spine 37.197054 -9.858263 -27.403569
Head -56.038508 6.328337 12.014828
LeftShoulder 19.482958 -5.968288 8.390433
LeftArm 34.730367 -25.135515 -67.254173
LeftForeArm -73.675039 0.000000 5.042837
LeftHand -19.771363 -0.000000 -34.780764
LeftHandThumb1 -26.253704 0.000000 33.147579
RightShoulder -17.005927 19.892166 -24.328187
RightArm -6.856271 -25.203491 81.332336
RightForeArm -27.581290 0.000000 30.995075
RightHand -6.345507 -0.000000 -1.053685
RightHandThumb1 -24.326973 -0.000000 -32.862282
LeftUpLeg -130.390775 13.412559 -38.200446
LeftLeg 107.462435 -0.000000 -0.000000
LeftFoot 35.548197 18.093199 -15.975908
LeftToeBase -2.008802 -0.000000 0.000000
RightUpLeg -23.014797 -6.701920 -14.832845
RightLeg 42.000036 -0.000000 -0.000000
RightFoot -23.268176 -18.038889 -3.596737
RightToeBase 0.430516 -0.000000 -0.000000
342
root -8.761144 32.109982 -7.176029 6.972047 10.927797 23.666859
Spine 37.237470 -9.822005 -27.469820
Head -56.063912 6.299473 12.197350
LeftShoulder 19.462314 -5.981719 8.402580
LeftArm 34.637151 -25.287702 -67.182517
LeftForeArm -73.161758 -0.000000 5.341331
LeftHand -19.827183 -0.000000 -34.938833
LeftHandThumb1 -26.253704 0.000000 33.147579
RightShoulder -17.021695 19.877604 -24.250223
RightArm -6.958790 -25.194277 81.270140
RightForeArm -27.587359 -0.000000 30.856073
RightHand -6.273584 -0.000000 -0.805422
RightHandThumb1 -24.326973 -0.000000 -32.862282
LeftUpLeg -130.403072 13.442355 -38.273904
LeftLeg 107.425346 -0.000000 -0.000000
LeftFoot 35.646236 18.196511 -15.919099
LeftToeBase -2.197797 -0.000000 0.000000
RightUpLeg -22.989092 -6.646421 -14.825861
RightLeg 41.982030 -0.000000 -0.000000
RightFoot -23.248454 -18.154047 -3.647420
RightToeBase 0.421607 -0.000000 -0.000000
343
root -8.766349 32.104893 -7.177097 6.977799 10.965813 23.653969
Spine 37.250834 -9.798406 -27.513638
Head -56.063852 6.281034 12.358682
LeftShoulder 19.424195 -5.950918 8.444613
LeftArm 34.573122 -25.389794 -67.111994
LeftForeArm -72.753318 -0.000000 5.628643
LeftHand -19.920790 -0.000000 -35.112001
LeftHandThumb1 -26.253704 0.000000 33.147579
RightShoulder -17.018256 19.833381 -24.162792
RightArm -7.028416 -25.281215 81.144536
RightForeArm -27.464181 -0.000000 30.687958
RightHand -6.082122 -0.000000 -0.706903
RightHandThumb1 -24.326973 -0.000000 -32.862282
LeftUpLeg -130.447587 13.450235 -38.361007
LeftLeg 107.386465 -0.000000 -0.000000
LeftFoot 35.725920 18.270891 -15.795455
LeftToeBase -2.041555 -0.000000 0.000000
RightUpLeg -23.020782 -6.591067 -14.794493
RightLeg 42.042832 -0.000000 -0.000000
RightFoot -23.224779 -18.255538 -3.669728
RightToeBase 0.355250 -0.000000 -0.000000
344
root -8.771907 32.102578 -7.182635 7.013759 11.010893 23.646395
Spine 37.239664 -9.788468 -27.543380
Head -56.064621 6.190980 12.493338
LeftShoulder 19.439204 -5.975702 8.450695
LeftArm 34.461673 -25.486971 -67.024869
LeftForeArm -72.551886 -0.000000 5.862210
LeftHand -19.997204 -0.000000 -35.258272
LeftHandThumb1 -26.253704 0.000000 33.147579
RightShoulder -17.002081 19.786485 -24.069607
RightArm -7.095533 -25.323031 81.010843
RightForeArm -27.363740 -0.000000 30.498212
RightHand -5.985157 0.000000 -0.652331
RightHandThumb1 -24.326973 -0.000000 -32.862282
LeftUpLeg -130.501240 13.414724 -38.464332
LeftLeg 107.333417 -0.000000 -0.000000
LeftFoot 35.799587 18.313847 -15.728645
LeftToeBase -2.026427 -0.000000 0.000000
RightUpLeg -23.023700 -6.445484 -14.774068
RightLeg 41.985274 -0.000000 -0.000000
RightFoot -23.182232 -18.477046 -3.731037
RightToeBase 0.329501 -0.000000 -0.000000
345
root -8.778382 32.101098 -7.188351 7.053894 11.066833 23.624658
Spine 37.252303 -9.766906 -27.552458
Head -56.134752 6.208902 12.634658
LeftShoulder 19.435997 -6.050550 8.438203
LeftArm 34.425190 -25.616043 -67.032320
LeftForeArm -72.266563 -0.000000 6.025046
LeftHand -19.925939 0.000000 -35.345483
LeftHandThumb1 -26.253704 0.000000 33.147579
RightShoulder -17.041171 19.752952 -23.975757
RightArm -7.153336 -25.412375 80.845498
RightForeArm -27.307971 -0.000000 30.327696
RightHand -6.009821 0.000000 -0.454498
RightHandThumb1 -24.326973 -0.000000 -32.862282
LeftUpLeg -130.556938 13.358973 -38.560756
LeftLeg 107.280949 -0.000000 -0.000000
LeftFoot 35.769963 18.299861 -15.628757
LeftToeBase -1.777082 -0.000000 0.000000
RightUpLeg -23.012483 -6.321343 -14.734644
RightLeg 41.887595 -0.000000 -0.000000
RightFoot -23.144509 -18.698586 -3.804800
RightToeBase 0.349734 -0.000000 -0.000000
346
root -8.785471 32.099966 -7.195110 7.103094 11.144802 23.599379
Spine 37.244561 -9.772968 -27.558877
Head -56.149218 6.128271 12.783463
LeftShoulder 19.432182 -6.073810 8.438856
LeftArm 34.460673 -25.793779 -67.099942
LeftForeArm -72.124907 0.000000 6.147966
LeftHand -20.131622 -0.000000 -35.625397
LeftHandThumb1 -26.253704 0.000000 33.147579
RightShoulder -17.027246 19.692088 -23.852315
RightArm -7.197336 -25.462264 80.652636
RightForeArm -27.241506 0.000000 30.106448
RightHand -5.858421 -0.000000 -0.409246
RightHandThumb1 -24.326973 -0.000000 -32.862282
LeftUpLeg -130.604633 13.281753 -38.655924
LeftLeg 107.213009 -0.000000 -0.000000
LeftFoot 35.733527 18.292768 -15.514455
LeftToeBase -1.786018 -0.000000 0.000000
RightUpLeg -23.009519 -6.244471 -14.682330
RightLeg 41.789920 -0.000000 -0.000000
RightFoot -23.101485 -18.915675 -3.902343
RightToeBase 0.370034 -0.000000 -0.000000
